<?xml version="1.0" encoding="UTF-8"?>
<svg id="Layer_1" xmlns="http://www.w3.org/2000/svg" viewBox="0 0 313.6 103.06">
  <defs>
    <style>
      .cls-1 {
        fill: #f4be3c;
        font-family: Webdings, Webdings;
        font-size: 18px;
      }

      .cls-1, .cls-2 {
        isolation: isolate;
      }

      .cls-3 {
        fill: none;
        stroke: #f4be3c;
        stroke-miterlimit: 10;
        stroke-width: 2px;
      }

      .cls-4 {
        fill: #f68a3d;
      }

      .cls-5 {
        fill: #586a75;
      }
    </style>
  </defs>
  <g>
    <path class="cls-4" d="M24.64,85.11c.4,2.4.21,4.57-.58,6.52-.79,1.95-2.04,3.56-3.74,4.82s-3.67,2.08-5.91,2.46c-2.27.38-4.41.26-6.42-.38s-3.7-1.75-5.09-3.33c-1.39-1.58-2.28-3.58-2.68-5.97C-.19,86.8,0,84.62.8,82.68c.8-1.94,2.03-3.53,3.72-4.79s3.67-2.08,5.94-2.46c2.24-.38,4.37-.25,6.39.38,2.02.63,3.72,1.73,5.11,3.3,1.38,1.57,2.28,3.57,2.69,6h-.01ZM21.42,85.66c-.3-1.77-.96-3.19-1.98-4.27-1.02-1.08-2.28-1.81-3.76-2.21s-3.02-.47-4.63-.19c-1.64.28-3.09.84-4.34,1.7s-2.18,1.97-2.8,3.32c-.62,1.35-.78,2.91-.48,4.68.29,1.74.95,3.15,1.98,4.24s2.27,1.84,3.74,2.24c1.46.4,3.02.47,4.66.19,1.61-.27,3.05-.84,4.31-1.7,1.27-.86,2.21-1.98,2.82-3.35.61-1.37.77-2.92.48-4.66h0Z"/>
    <path class="cls-4" d="M23.53,71.45L0,66.74l.71-3.53,5.79,1.16c-.38-.21-.88-.56-1.48-1.06s-1.18-1.16-1.73-1.99c-.55-.83-.96-1.82-1.24-2.97s-.27-2.44.02-3.89l.05-.24,3.53.71-.08.42c-.35,1.76-.18,3.37.53,4.83s1.75,2.68,3.13,3.66,2.94,1.64,4.67,1.99l10.35,2.07-.71,3.53v.02Z"/>
    <path class="cls-4" d="M31.36,49.91c-1.25,1.98-2.8,3.41-4.67,4.29-1.87.89-3.85,1.23-5.96,1.03s-4.12-.9-6.05-2.11c-1.95-1.23-3.46-2.75-4.53-4.56s-1.61-3.75-1.61-5.81.62-4.08,1.87-6.06c1.06-1.68,2.29-2.91,3.7-3.71,1.41-.79,2.91-1.22,4.5-1.28l-3.29-2.08,1.92-3.04,20.3,12.81-1.92,3.04-3.25-2.05c.61,1.44.85,2.97.74,4.58-.11,1.61-.7,3.26-1.75,4.94h0ZM28.85,47.77c.96-1.52,1.41-3.02,1.37-4.5s-.49-2.87-1.32-4.16c-.84-1.28-1.94-2.36-3.32-3.23-1.41-.89-2.86-1.43-4.37-1.62-1.5-.19-2.94,0-4.3.61-1.36.6-2.52,1.66-3.48,3.17-.94,1.49-1.4,3-1.38,4.52.02,1.53.43,2.94,1.24,4.24.8,1.3,1.91,2.4,3.32,3.29,1.38.87,2.84,1.39,4.37,1.57,1.54.17,3-.06,4.38-.7,1.39-.64,2.55-1.7,3.49-3.19Z"/>
    <path class="cls-4" d="M39.69,37.5l-12.38-20.56,3.08-1.86,1.93,3.21c.15-1.43.55-2.81,1.2-4.14.66-1.33,1.82-2.5,3.49-3.5,1.42-.86,2.96-1.33,4.62-1.41,1.65-.08,3.27.31,4.85,1.17,1.58.86,2.96,2.26,4.13,4.21l7.21,11.96-3.08,1.86-7.16-11.88c-1.12-1.86-2.56-3.04-4.32-3.54-1.75-.49-3.48-.23-5.18.79-1.15.69-2.04,1.58-2.65,2.66s-.92,2.27-.92,3.55.38,2.54,1.12,3.78l7.13,11.84-3.08,1.86h0Z"/>
    <path class="cls-4" d="M72.06,34.66c-3,.24-5.49-.22-7.47-1.36-1.98-1.14-3.39-2.73-4.23-4.75l3.97-.31c.57,1.14,1.47,1.99,2.71,2.56,1.23.56,2.76.77,4.57.63,2.74-.22,4.69-1.02,5.85-2.41,1.16-1.39,1.64-3.31,1.45-5.77l-.26-3.3c-.79,1.35-1.87,2.47-3.23,3.36-1.36.89-3.03,1.42-5,1.57-2.33.18-4.4-.19-6.23-1.12-1.82-.93-3.29-2.29-4.39-4.06-1.1-1.77-1.74-3.79-1.92-6.06-.18-2.3.13-4.4.95-6.31.81-1.91,2.05-3.47,3.7-4.67s3.65-1.9,5.98-2.08c1.98-.15,3.71.09,5.18.72,1.48.64,2.72,1.58,3.71,2.81l-.3-3.83,3.59-.28,1.83,23.21c.27,3.41-.51,6.11-2.33,8.08s-4.53,3.1-8.14,3.38h.01ZM70.64,21.58c1.75-.14,3.21-.65,4.38-1.55,1.17-.89,2.02-2.04,2.57-3.45s.76-2.92.63-4.55c-.13-1.66-.58-3.13-1.33-4.42-.76-1.29-1.78-2.28-3.08-2.98-1.29-.7-2.81-.98-4.57-.84-1.75.14-3.24.66-4.45,1.55s-2.1,2.04-2.67,3.44c-.57,1.4-.78,2.92-.65,4.58.13,1.63.58,3.09,1.36,4.4.78,1.3,1.83,2.3,3.17,3s2.88.98,4.64.84v-.02Z"/>
    <path class="cls-4" d="M95.14,28.9c-2.25-.91-4.02-2.23-5.29-3.93s-2.03-3.63-2.25-5.76.09-4.24.95-6.35c.87-2.13,2.09-3.89,3.69-5.26,1.59-1.37,3.43-2.24,5.5-2.58,2.08-.35,4.24-.07,6.49.85,2.28.93,4.04,2.23,5.27,3.93,1.23,1.69,1.94,3.58,2.12,5.68.19,2.1-.15,4.21-1.02,6.35l-.54,1.33-18.64-7.56c-.35,1.38-.41,2.74-.18,4.1s.78,2.58,1.64,3.67c.87,1.09,2.04,1.94,3.53,2.54,1.57.64,3.03.82,4.38.56s2.54-.82,3.58-1.68l3.65,1.48c-1.58,1.67-3.46,2.8-5.65,3.38s-4.6.33-7.24-.74h.01ZM92.74,12.49l15.12,6.13c.47-2.02.31-3.93-.47-5.73-.79-1.8-2.25-3.14-4.38-4-2.14-.87-4.11-.92-5.91-.17-1.81.75-3.26,2.01-4.35,3.78h-.01Z"/>
  </g>
  <g>
    <path class="cls-5" d="M49.46,86.06c-3.12,2.11-6.5,3.17-10.15,3.17-4.03,0-7.09-.82-9.18-2.45s-3.16-4.01-3.2-7.13c-.1-6.29,3.89-9.43,11.95-9.43l9.29.07c0-3.22-.6-5.6-1.8-7.16s-3.02-2.34-5.47-2.34c-1.15,0-2.28.07-3.38.22-1.1.14-2.14.36-3.1.65l-.72,3.96-4.61-.86,1.15-6.55c1.82-.67,3.61-1.18,5.36-1.51,1.75-.34,3.44-.5,5.08-.5,4.32,0,7.58,1.16,9.79,3.49,2.21,2.33,3.31,5.77,3.31,10.33v12.53l6.84,2.23-1.44,4.61-9.72-3.31v-.02ZM39.09,74.76c-2.06,0-3.65.41-4.75,1.22-1.1.82-1.66,2.02-1.66,3.6,0,3.36,2.3,5.04,6.91,5.04,3.31,0,6.17-.91,8.57-2.74v-7.06l-9.07-.07h0Z"/>
    <path class="cls-5" d="M97.62,86.06c-1.54.96-3.26,1.73-5.18,2.3-1.92.58-3.72.86-5.4.86-4.42,0-7.67-.98-9.76-2.95s-3.13-5.04-3.13-9.22v-15.34h-6.05v-4.46h11.66v18.65c0,3.07.61,5.29,1.84,6.66,1.22,1.37,3.16,2.05,5.8,2.05,1.54,0,3.17-.23,4.9-.68,1.73-.46,3.12-1.04,4.18-1.76v-20.45h-6.05v-4.46h11.66v25.27l6.77,2.3-1.44,4.61-9.79-3.38h0Z"/>
    <path class="cls-5" d="M132.4,89.23c-1.73,0-3.37-.34-4.93-1.01-1.56-.67-2.82-1.87-3.78-3.6-.96-1.73-1.44-4.13-1.44-7.2v-15.7h-5.98v-4.46h5.98v-6.98l5.47-1.3v8.28h9v4.46h-9v12.53c0,3.22.31,5.81.94,7.78.62,1.97,1.99,2.95,4.1,2.95,1.49,0,3.17-.43,5.04-1.3l1.08,4.03c-1.01.38-2.06.73-3.17,1.04-1.1.31-2.21.47-3.31.47h0Z"/>
    <path class="cls-5" d="M176.25,86.06c-1.54.96-3.26,1.73-5.18,2.3-1.92.58-3.72.86-5.4.86-4.42,0-7.67-.98-9.76-2.95s-3.13-5.04-3.13-9.22v-15.34h-6.05v-4.46h11.66v18.65c0,3.07.61,5.29,1.84,6.66,1.22,1.37,3.16,2.05,5.8,2.05,1.54,0,3.17-.23,4.9-.68,1.73-.46,3.12-1.04,4.18-1.76v-20.45h-6.05v-4.46h11.66v25.27l6.77,2.3-1.44,4.61-9.79-3.38h-.01Z"/>
    <path class="cls-5" d="M196.26,88.15v-4.46h6.05v-20.66l-6.91-2.38,1.51-4.46,9.5,3.31c1.34-1.01,2.89-1.81,4.64-2.41s3.44-.9,5.08-.9c2.4,0,4.47.31,6.23.94,1.75.62,3.13,1.56,4.14,2.81,1.2-1.1,2.76-2,4.68-2.7s3.77-1.04,5.54-1.04c4.37,0,7.52.96,9.47,2.88,1.94,1.92,2.92,5.02,2.92,9.29v15.34h6.05v4.46h-14.9v-4.46h3.24v-14.18c0-3.17-.54-5.41-1.62-6.73s-2.92-1.98-5.51-1.98c-1.54,0-3.04.23-4.5.68-1.46.46-2.58,1.04-3.35,1.76v20.45h3.24v4.46h-12.1v-4.46h3.24v-14.18c0-3.17-.54-5.41-1.62-6.73s-2.92-1.98-5.51-1.98c-1.54,0-3.04.23-4.5.68-1.46.46-2.58,1.04-3.35,1.76v20.45h3.24v4.46h-14.9v-.02Z"/>
    <path class="cls-5" d="M264.16,88.15v-4.46h6.05v-20.66l-6.91-2.38,1.51-4.46,9.58,3.31c1.68-1.1,3.47-1.93,5.36-2.48,1.9-.55,3.75-.83,5.58-.83,2.3,0,4.43.44,6.37,1.33,1.94.89,3.5,2.23,4.68,4.03s1.76,4.07,1.76,6.8v15.34h6.05v4.46h-14.9v-4.46h3.24v-14.18c0-3.07-.78-5.29-2.34-6.66s-3.49-2.05-5.8-2.05c-1.34,0-2.75.2-4.21.61s-2.92,1.02-4.36,1.84v20.45h3.24v4.46h-14.9,0Z"/>
  </g>
  <line class="cls-3" x1="26.07" y1="94.57" x2="302.1" y2="94.57"/>
  <g class="cls-2">
    <text class="cls-1" transform="translate(295.6 99.46)"><tspan x="0" y="0">4</tspan></text>
  </g>
</svg>